<?xml version="1.0" encoding="utf-8"?>
<!-- Generator: Adobe Illustrator 16.0.0, SVG Export Plug-In . SVG Version: 6.00 Build 0)  -->
<!DOCTYPE svg PUBLIC "-//W3C//DTD SVG 1.1//EN" "http://www.w3.org/Graphics/SVG/1.1/DTD/svg11.dtd">
<svg version="1.1" id="Layer_1" xmlns="http://www.w3.org/2000/svg" xmlns:xlink="http://www.w3.org/1999/xlink" x="0px" y="0px"
	 width="400px" height="156.711px" viewBox="0 0 400 156.711" enable-background="new 0 0 400 156.711" xml:space="preserve">
<g>
	<linearGradient id="SVGID_1_" gradientUnits="userSpaceOnUse" x1="61.9902" y1="4.5054" x2="61.9902" y2="121.8911">
		<stop  offset="0" style="stop-color:#0074BC"/>
		<stop  offset="1" style="stop-color:#A0C9EC"/>
	</linearGradient>
	<path fill="url(#SVGID_1_)" d="M76.603,4.741c2.674-0.382,5.386-0.181,8.081-0.197c7.066,0.6,13.841,3.702,19.095,8.43
		c9.601,9.214,16.958,21.079,19.473,34.253c0.838,4.359,0.958,8.857,0.345,13.253c-0.949,5.998-3.59,11.639-7.124,16.536
		c-2.896,4.153-6.573,7.669-10.262,11.1c-9.51,8.483-19.892,15.952-30.721,22.652c-6.787,3.956-13.606,8.13-21.194,10.353
		c-3.73,1.212-7.678,0.592-11.523,0.731c-8.434-1.105-15.718-6.483-20.947-12.966c-3.562-4.272-6.265-9.169-9.034-13.968
		C7.61,85.655,3.31,75.796,1.066,65.386c-1.417-5.604-1.569-11.663,0.448-17.143c2.387-6.865,7.6-12.288,13.191-16.72
		c8.27-6.446,17.694-11.195,27.245-15.418c7.025-2.958,14.128-5.772,21.42-8.002C67.696,6.688,72.108,5.485,76.603,4.741
		L76.603,4.741z"/>
	<path fill="#1E70B8" d="M321.377,94.053c0.807-0.296,1.924-0.382,2.514,0.373c0.516,0.724,0.629,1.631,0.633,2.498
		c0.006,12.07-0.031,24.144,0.018,36.213c8.775-6.322,17.422-12.816,26.156-19.197c0.645-0.484,1.631-0.821,2.248-0.082
		c0.582,0.776,0.027,1.713-0.67,2.17c-7.129,5.34-14.256,10.672-21.391,15.992c-0.691,0.48-1.436,0.941-1.838,1.705
		c7.949,6.38,15.895,12.769,23.84,19.16c0.785,0.633,1.693,1.746,0.949,2.753c-0.529,1.343-2.305,1.236-3.236,0.406
		c-8.711-6.942-17.342-13.983-26.055-20.918c-0.063,6.183-0.012,12.365-0.025,18.544c-0.02,0.97-0.135,2.046-0.838,2.785
		c-1.293,0.67-3.195,0.123-3.17-1.549c-0.088-19.456,0.008-38.916-0.047-58.377C320.432,95.639,320.584,94.603,321.377,94.053
		L321.377,94.053z"/>
	<path fill="#1E70B8" d="M201.342,100.642c0.012-0.986,0.51-2.227,1.656-2.255c1.129-0.263,2.242,0.731,2.164,1.881
		c0.078,3.94,0.049,7.892,0.004,11.836c2.137,0.144,4.281-0.041,6.422,0.103c1.277,0.041,1.609,1.902,0.414,2.366
		c-2.271,0.152-4.551-0.012-6.828,0.095c0.066,12.304-0.004,24.611,0.037,36.92c-0.016,0.797,0.01,1.61-0.201,2.387
		c-0.821,1.603-3.615,1.109-3.623-0.793c-0.106-12.846-0.008-25.704-0.049-38.555c-2.174-0.037-4.351,0.065-6.52-0.029
		c-0.916-0.041-1.221-1.224-0.781-1.905c0.518-0.51,1.286-0.538,1.973-0.538c1.774,0,3.549,0.016,5.328,0.008
		C201.354,108.32,201.326,104.479,201.342,100.642L201.342,100.642z"/>
	<path fill="#1E70B8" d="M154.703,96.821c6.746-0.899,13.972,0.214,19.69,4.055c5.398,3.537,9.059,9.288,10.813,15.422
		c0.809,3.209,1.38,6.508,1.364,9.823c-0.259,6.696-2.083,13.527-6.265,18.876c-3.78,5.058-9.601,8.455-15.821,9.453
		c-7.086,1.188-14.797,0.164-20.828-3.932c-4.917-3.237-8.38-8.339-10.295-13.849c-1.109-3.401-1.635-6.967-1.84-10.528
		c0.123-7.05,1.968-14.276,6.404-19.88C141.93,100.991,148.17,97.646,154.703,96.821L154.703,96.821z M154.813,99.874
		c-2.034,0.332-4.046,0.866-5.895,1.795c-5.661,2.563-9.543,8.04-11.277,13.89c-2.444,7.81-1.984,16.511,1.388,23.975
		c2.395,5.259,6.914,9.605,12.497,11.285c5.833,1.729,12.361,1.487,17.903-1.125c4.868-2.351,8.434-6.832,10.361-11.815
		c2.494-6.762,2.9-14.305,0.961-21.26c-1.45-5.805-4.971-11.276-10.237-14.288C165.782,99.718,160.113,98.974,154.813,99.874
		L154.813,99.874z"/>
	<path fill="#1E70B8" d="M233.616,112.091c2.48-0.587,5.064-0.295,7.596-0.308c3.895,0.497,7.863,1.438,11.211,3.582
		c0.789,0.407,1.008,1.676,0.289,2.252c-0.695,0.714-1.869,0.518-2.658,0.073c-1.875-1.063-3.752-2.177-5.846-2.757
		c-2.811-0.916-5.822-0.801-8.727-0.583c-2.539,0.48-5.16,1.339-7.041,3.192c-1.738,1.729-2.473,4.63-1.068,6.786
		c1.939,3.245,5.994,3.837,9.23,5.123c5.111,1.984,10.744,3.176,15.031,6.787c3.941,3.307,4.031,9.938,0.477,13.557
		c-3.191,3.446-8.035,4.716-12.574,5.049c-6.564,0.477-13.445-1.314-18.471-5.682c-0.611-0.563-1.211-1.24-1.338-2.087
		c-0.088-0.83,0.668-1.45,1.367-1.718c1.252-0.135,2.004,1.048,2.838,1.768c4.34,4.12,10.607,5.969,16.5,5.114
		c3.064-0.534,6.182-1.771,8.199-4.235c1.523-1.82,1.939-4.408,1.293-6.659c-0.76-2.412-3.17-3.657-5.344-4.557
		c-4.639-1.672-9.26-3.401-13.914-5.036c-2.178-0.805-4.383-1.791-6.039-3.468c-2.758-2.802-3.164-7.661-0.736-10.796
		C226.225,114.437,229.967,112.917,233.616,112.091L233.616,112.091z"/>
	<path fill="#1E70B8" d="M271.62,113.775c0.904-0.337,2.256-0.402,2.799,0.571c0.221,0.62,0.18,1.29,0.213,1.943
		c-0.025,7.661,0.004,15.323-0.016,22.988c-0.006,1.783,0.164,3.566,0.287,5.35c0.275,2.642,1.508,5.267,3.676,6.868
		c2.375,1.701,5.279,2.584,8.193,2.658c4.342,0.271,9.164-0.147,12.611-3.085c2.264-1.832,3.08-4.864,3.031-7.666
		c0-8.902,0.004-17.805,0-26.703c0.021-1.011,0.045-2.21,0.908-2.904c0.822-0.324,1.869-0.382,2.617,0.181
		c0.514,0.793,0.604,1.771,0.619,2.699c-0.012,8.619,0,17.242-0.004,25.861c-0.027,3.277-1.092,6.602-3.363,9.017
		c-2.791,2.913-6.758,4.429-10.689,4.955c-5.42,0.521-11.27,0.192-15.949-2.885c-3.479-2.189-5.742-6.141-5.824-10.254
		c-0.004-9.173-0.004-18.347,0-27.516C270.749,115.11,270.897,114.149,271.62,113.775L271.62,113.775z"/>
	<path fill="#1E70B8" d="M368.145,117.145c3.508-2.634,7.986-3.727,12.332-3.574c4.072-0.037,8.143,1.475,11.162,4.219
		c1.918,1.635,3.189,3.845,4.359,6.043c0.186-2.871-0.063-5.755,0.135-8.619c0.078-1.199,1.246-1.914,2.379-1.614
		c1.34,0.07,1.447,1.66,1.479,2.688c0.01,12.455-0.008,24.916,0.01,37.371c-0.07,0.945,0.023,2.079-0.715,2.798
		c-1.32,0.678-3.201,0.103-3.135-1.603c-0.063-2.966-0.264-5.981,0.127-8.927c-1.488,3.271-3.586,6.396-6.713,8.294
		c-2.826,1.792-6.195,2.625-9.527,2.461c-5.246,0.164-10.721-1.557-14.424-5.39c-3.49-3.545-5.262-8.487-5.697-13.372
		c0.063-2.769-0.264-5.587,0.457-8.294C361.458,124.77,364.02,120.053,368.145,117.145L368.145,117.145z M377.397,116.253
		c-4.314,0.633-8.195,3.397-10.332,7.181c-3.752,6.298-3.977,14.338-1.27,21.071c1.459,3.422,3.891,6.561,7.313,8.184
		c3.135,1.663,6.814,1.754,10.262,1.313c4.195-0.689,7.848-3.508,9.893-7.188c2.514-4.671,3.283-10.164,2.602-15.394
		c-0.695-4.211-2.17-8.521-5.346-11.516C387.133,116.54,381.999,115.468,377.397,116.253L377.397,116.253z"/>
	<path fill="#BB142F" d="M49.148,126.848c3.332-1.154,6.877,0.074,9.995,1.322c3.369,1.673,7.185,3.11,9.453,6.273
		c2.042,3.168,1.237,7.152,0.284,10.546c-1.154,3.229-2.757,6.598-5.772,8.475c-2.153,1.278-4.778,1.245-7.181,0.916
		c-3.956-0.263-7.912-0.936-11.618-2.366c-1.812-0.727-3.377-2.238-3.895-4.157c-0.851-2.83-0.168-5.829,0.703-8.569
		c0.916-2.662,1.865-5.337,3.344-7.748C45.533,129.592,46.954,127.596,49.148,126.848L49.148,126.848z"/>
</g>
</svg>
